<?xml version="1.0" encoding="utf-8" ?><svg xmlns="http://www.w3.org/2000/svg" xmlns:xlink="http://www.w3.org/1999/xlink" width="800" height="800" viewBox="0 0 800 800"><defs><linearGradient id="gradient_0" gradientUnits="userSpaceOnUse" x1="252.5172" y1="88.474854" x2="260.28979" y2="418.6973"><stop offset="0" stop-color="#12DDBC"/><stop offset="1" stop-color="#10C3D8"/></linearGradient></defs><path fill="url(#gradient_0)" transform="scale(1.5625 1.5625)" d="M104.794 91.5718L399.966 91.5593C404.148 91.5487 408.802 91.3344 412.907 91.9002C430.752 94.3596 445.298 110.725 445.871 128.698C446.056 134.509 445.86 140.552 445.853 146.345L445.856 368.68C445.849 393.338 435.226 414.733 407.187 415.909L116.002 415.916C101.42 415.922 91.4473 415.208 79.965 404.787C64.5393 390.787 66.828 374.262 66.8305 355.42L66.8334 139.852C66.8366 126.121 66.9872 115.235 77.1043 104.442C84.8173 96.2136 93.4987 92.0691 104.794 91.5718ZM82.2475 171.733L82.2439 373.839C82.2066 387.852 91.6215 400.345 106.689 400.164L373.073 400.006C385.473 400.005 400.121 399.626 412.311 400.011C433.605 393.93 430.181 373.287 430.179 356.466L430.177 171.733L99.7112 171.733L82.2475 171.733ZM82.2475 156.081L406.125 156.081C413.937 156.086 422.42 156.26 430.177 156.081L430.047 129.814C430.069 108.905 411.554 106.758 395.943 106.753L108.869 106.735C108.217 106.736 106.748 106.706 106.135 106.758C85.2212 109.986 82.2114 121.085 82.2259 138.785L82.2475 156.081Z"/><path fill="#0DCEC9" transform="scale(1.5625 1.5625)" d="M257.453 230.335C267.263 229.243 279.148 233.351 286.565 239.567C301.488 252.075 301.015 265.096 300.753 282.73C300.538 297.154 302.181 306.734 291.617 318.745C284.194 327.184 275.256 331.604 264.151 332.489C252.649 332.819 243.453 331.303 234.037 324.199C219.485 313.22 220.109 298.619 220.263 282.247C220.528 254.112 224.817 234.497 257.453 230.335ZM265.207 317.289C275.204 314.454 283.472 308.413 285.089 297.702C285.864 292.565 285.968 267.323 284.646 262.783C281.309 251.318 268.156 243.981 256.607 246.266C241.99 247.481 235.005 259.228 235.932 272.865C236.463 280.669 235.387 289.53 235.97 297.392C237.163 312.984 251.675 318.529 265.207 317.289Z"/><path fill="#0DCEC9" transform="scale(1.5625 1.5625)" d="M165.637 230.335C185.778 227.974 206.527 246.755 206.269 267.524C206.114 280.037 208.321 302.732 202.233 312.637C195.231 325.222 182.565 332.32 168.135 332.489C136.244 332.764 125.683 311.104 126.235 281.841C126.493 268.154 124.831 257.833 134.442 246.039C143.183 235.312 152.474 231.871 165.637 230.335ZM168.135 317.289C195.938 316.159 191.635 287.017 191.374 267.537C191.203 254.815 178.048 243.856 165.637 246.266C137.811 246.783 142.22 273.759 141.814 292.525C141.485 307.756 153.178 317.52 168.135 317.289Z"/><path fill="#0DCEC9" transform="scale(1.5625 1.5625)" d="M320.711 231.257L343.101 231.239C357.415 231.242 365.728 229.855 376.906 240.735C394.546 257.906 385.844 287.95 362.518 294.33C356.026 296.106 350.8 295.868 344.207 295.876C339.543 295.86 334.861 295.821 330.198 295.876C330.206 301.372 330.973 323.98 329.3 327.738C326.277 334.529 316.8 332.863 314.912 325.974C313.714 321.601 314.423 315.837 314.426 311.288L314.429 258.526C314.431 251.068 311.913 233.348 320.711 231.257ZM330.198 280.343L344.573 280.365C353.03 280.386 358.806 281.575 365.571 275.697C377.542 263.18 367.316 244.535 349.757 246.232C348.841 246.32 346.893 246.235 345.871 246.237L330.198 246.266L330.186 268.826C330.184 272.443 330.061 276.786 330.198 280.343Z"/><path fill="#0DCEC9" transform="scale(1.5625 1.5625)" d="M111.614 112.76C121.699 112.235 130.292 120.005 130.782 130.092C131.272 140.179 123.473 148.745 113.384 149.201C103.344 149.655 94.8279 141.901 94.3402 131.863C93.8524 121.824 101.577 113.282 111.614 112.76Z"/><path fill="#FEFEFE" transform="scale(1.5625 1.5625)" d="M111.935 126.505C116.558 126.207 118.444 133.463 113.638 135.546C107.384 135.38 106.075 129.713 111.935 126.505Z"/><path fill="#0DCEC9" transform="scale(1.5625 1.5625)" d="M149.707 112.927C159.63 111.879 168.53 119.06 169.604 128.98C170.677 138.9 163.52 147.819 153.603 148.918C143.648 150.022 134.69 142.832 133.613 132.875C132.535 122.918 139.748 113.979 149.707 112.927ZM152.435 135.546C155.886 133.607 155.989 133.204 155.705 129.34C154.348 127.891 153.395 126.744 151.314 126.505C146.555 129.443 146.878 135.464 152.435 135.546Z"/><path fill="#0DCEC9" transform="scale(1.5625 1.5625)" d="M189.523 112.965C199.437 112.611 207.766 120.35 208.14 130.263C208.515 140.176 200.792 148.521 190.88 148.915C180.939 149.31 172.565 141.561 172.19 131.62C171.815 121.679 179.581 113.32 189.523 112.965ZM190.624 135.546C195.688 132.972 195.543 126.832 189.886 126.505C184.076 129.847 185.932 135.451 190.624 135.546Z"/></svg>